<svg height="172" viewBox="0 0 461 172" width="461" xmlns="http://www.w3.org/2000/svg"><g fill="none" fill-rule="evenodd"><g transform="translate(20 38.169128)"><path d="m2.55658944 62.1960261c-1.41254485 0-2.55658944-1.1515602-2.55658944-2.5733846v-13.8148062c0-1.4218244 1.14404459-2.5733846 2.55658944-2.5733846l50.76989716 3.0277417h5.1128436l50.7698968-3.0277417c1.412545 0 2.55659 1.1515602 2.55659 2.5733846v13.8148062c0 1.4218244-1.144045 2.5733846-2.55659 2.5733846l-41.2448024-2.4596979 22.7386598 34.7238499c.7062725 1.2313361.2875231 2.8043966-.9357766 3.5153088l-11.8858902 6.9074031c-1.2232997.710912-2.7860937.289412-3.4923661-.941924l-22.2480464-44.7019836z" fill="#bee9ff"/><path d="m21.0627325 10.9702987c-.7062725-1.23133606-.2875231-2.80439661.9357766-3.51530881l11.8858902-6.90740307c1.2232997-.7109122 2.7860937-.28941189 3.4923661.94192415l18.506143 37.18354783 18.5061431-37.18354783c.7062724-1.23133604 2.2690664-1.65283635 3.4923661-.94192415l11.8858902 6.90740307c1.2232997.7109122 1.6420491 2.28397275.9357766 3.51530881l-27.9899367 42.7429924-2.5564218 4.4569406-22.7799605 45.7707343c-.7062724 1.231336-2.2690664 1.652836-3.4923661.941924l-11.8858902-6.9074031c-1.2232997-.7109122-1.6420491-2.2839727-.9357766-3.5153088l27.3363692-41.7449397z" fill="#29b8ff"/></g><path d="m190.188 108.984h.216l14.148-40.176h10.8l-24.84 63.288c-.864004 2.160011-1.799995 4.085992-2.808 5.778s-2.195993 3.131994-3.564 4.32-2.969991 2.105997-4.806 2.754-4.013987.972-6.534.972c-1.080005 0-2.177994-.053999-3.294-.162s-2.249994-.305999-3.402-.594l.972-8.964c1.728009.576003 3.419992.864 5.076.864 2.664013 0 4.643994-.737993 5.94-2.214s2.483995-3.581986 3.564-6.318l3.24-8.532-21.924-51.192h11.34zm86.832-14.688c0 3.9600198-.701993 7.595983-2.106 10.908s-3.347988 6.173988-5.832 8.586-5.417983 4.283993-8.802 5.616-7.019981 1.998-10.908 1.998-7.523983-.665993-10.908-1.998-6.299988-3.203988-8.748-5.616-4.373993-5.273983-5.778-8.586-2.106-6.9479802-2.106-10.908.701993-7.5779836 2.106-10.854 3.329988-6.1019881 5.778-8.478 5.363983-4.2299933 8.748-5.562 7.019981-1.998 10.908-1.998 7.523983.6659933 10.908 1.998 6.317988 3.1859881 8.802 5.562 4.427993 5.2019836 5.832 8.478 2.106 6.8939802 2.106 10.854zm-10.584 0c0-2.4480122-.377996-4.7879888-1.134-7.02s-1.853993-4.1939915-3.294-5.886-3.221989-3.041995-5.346-4.05-4.553986-1.512-7.29-1.512-5.165989.503995-7.29 1.512-3.905993 2.3579915-5.346 4.05-2.537996 3.6539888-3.294 5.886-1.134 4.5719878-1.134 7.02.377996 4.7879888 1.134 7.02c.756004 2.232011 1.853993 4.211991 3.294 5.94s3.221989 3.095995 5.346 4.104 4.553986 1.512 7.29 1.512 5.165989-.503995 7.29-1.512 3.905993-2.375991 5.346-4.104 2.537996-3.707989 3.294-5.94c.756004-2.2320112 1.134-4.5719878 1.134-7.02zm65.448 17.604c-1.94401 3.096015-4.589983 5.453992-7.938 7.074s-6.857982 2.43-10.53 2.43c-3.96002 0-7.523984-.701993-10.692-2.106s-5.867989-3.329988-8.1-5.778-3.959994-5.327983-5.184-8.64-1.836-6.8399813-1.836-10.584.611994-7.2539836 1.836-10.53 2.969989-6.1379878 5.238-8.586 4.985984-4.3559932 8.154-5.724 6.659981-2.052 10.476-2.052c4.176021 0 7.811985.8819912 10.908 2.646s5.543991 3.9059874 7.344 6.426h.216v-38.124h10.152v81.648h-9.828v-8.1zm-33.696-17.604c0 2.3760119.359996 4.6799888 1.08 6.912.720004 2.232011 1.799993 4.211991 3.24 5.94s3.20399 3.113995 5.292 4.158 4.535986 1.566 7.344 1.566c2.592013 0 4.949989-.503995 7.074-1.512s3.941992-2.357992 5.454-4.05 2.681996-3.653989 3.51-5.886c.828004-2.2320112 1.242-4.5719878 1.242-7.02s-.413996-4.7879888-1.242-7.02-1.997992-4.2119914-3.51-5.94-3.329989-3.095995-5.454-4.104-4.481987-1.512-7.074-1.512c-2.808014 0-5.25599.503995-7.344 1.512s-3.851993 2.3759914-5.292 4.104-2.519996 3.7079888-3.24 5.94-1.08 4.5359881-1.08 6.912zm98.928-4.428c-.072-2.0160101-.413997-3.9059912-1.026-5.67s-1.511994-3.2939935-2.7-4.59-2.663991-2.3219962-4.428-3.078-3.833988-1.134-6.21-1.134c-2.160011 0-4.19399.3779962-6.102 1.134s-3.563993 1.7819935-4.968 3.078-2.555995 2.8259912-3.456 4.59-1.421999 3.6539899-1.566 5.67zm10.26 4.104v1.728c0 .5760029-.036 1.1519971-.108 1.728h-40.608c.072 2.1600108.557996 4.19399 1.458 6.102s2.105992 3.563993 3.618 4.968 3.25799 2.501996 5.238 3.294 4.085989 1.188 6.318 1.188c3.456017 0 6.443987-.755992 8.964-2.268s4.499993-3.347989 5.94-5.508l7.128 5.724c-2.736014 3.600018-5.957981 6.245992-9.666 7.938s-7.829977 2.538-12.366 2.538c-3.888019 0-7.487983-.647994-10.8-1.944s-6.155988-3.113988-8.532-5.454-4.247993-5.165983-5.616-8.478-2.052-6.9839798-2.052-11.016c0-3.9600198.665993-7.6139833 1.998-10.962s3.185988-6.2099881 5.562-8.586 5.183984-4.2299933 8.424-5.562 6.731981-1.998 10.476-1.998 7.145985.6119939 10.206 1.836 5.651989 2.9879885 7.776 5.292 3.761994 5.0939836 4.914 8.37 1.728 6.9659795 1.728 11.07zm24.516 26.028h-10.152v-81.648h10.152z" fill="#29b8ff"/></g></svg>